<svg data-v-66515314="" width="142" height="24" viewBox="0 0 142 24" fill="none" xmlns="http://www.w3.org/2000/svg"><path data-v-66515314="" d="M24.165 11.8199V11.7699C24.165 11.6949 24.165 11.6199 24.165 11.5449C24.165 11.4699 24.165 11.4899 24.165 11.4599C24.165 11.4299 24.165 11.3299 24.165 11.2649C24.165 11.1999 24.165 11.0549 24.14 10.9499C24.115 10.8449 24.14 10.8099 24.14 10.7399V10.6399C24.14 10.5749 24.14 10.5149 24.14 10.4499C24.14 10.3849 24.14 10.4149 24.14 10.3949C24.14 10.3749 24.14 10.2499 24.105 10.1799V10.1499L24.06 9.90492V9.87492C24.06 9.80992 24.035 9.74492 24.025 9.67992C24.015 9.61492 24.025 9.67992 24.025 9.64992C24.025 9.61992 24.025 9.60992 24.025 9.58992C24.025 9.56992 23.99 9.43992 23.975 9.36492C23.975 9.27992 23.94 9.19992 23.92 9.11992L23.875 8.93992C23.875 8.90992 23.875 8.87992 23.85 8.85492L23.79 8.64992V8.59492C23.765 8.51992 23.745 8.44492 23.72 8.36992C23.695 8.29492 23.72 8.36992 23.72 8.36992C23.72 8.36992 23.66 8.20492 23.635 8.11992L23.545 7.87992C23.515 7.79992 23.485 7.71492 23.45 7.63492C23.415 7.55492 23.395 7.49992 23.365 7.42992C23.3572 7.40573 23.3471 7.3823 23.335 7.35992C23.31 7.29492 23.28 7.22492 23.25 7.15992C23.175 6.99992 23.1 6.83992 23.02 6.65992L22.9 6.42492L22.795 6.22992C22.745 6.14492 22.695 6.05492 22.64 5.96992C22.585 5.88492 22.565 5.83992 22.525 5.77492L22.495 5.72992C22.455 5.65992 22.41 5.59492 22.365 5.52492C22.366 5.51161 22.366 5.49824 22.365 5.48492L22.245 5.30992L22.12 5.12992L22.06 5.04492C21.985 4.93992 21.91 4.83492 21.83 4.73492L21.775 4.66492C21.625 4.47492 21.47 4.28992 21.31 4.10492L21.245 4.03492C20.9752 3.73513 20.6898 3.44973 20.39 3.17992L20.285 3.08492C20.14 2.94992 19.99 2.82492 19.835 2.69992L19.73 2.61992C19.615 2.52992 19.5 2.43992 19.38 2.35492L19.275 2.27992C19.155 2.18992 19.03 2.10492 18.905 2.02492L18.715 1.89992L18.525 1.78492L18.445 1.73492C18.155 1.56492 17.86 1.40492 17.555 1.23492L17.39 1.15492L17.285 1.10492L17.12 1.03492L17.035 0.994923L16.695 0.854921L16.59 0.814922L16.39 0.739922L16.185 0.669922L16.085 0.634922L15.765 0.534922L15.62 0.494923L15.38 0.424921L15.19 0.379921C14.97 0.324921 14.75 0.279922 14.53 0.239922L14.355 0.204922H14.325H14.145H14.005L13.74 0.169922H13.585H13.37H13.265H12.955H11.71H11.405H11.3H11.085H10.925L10.665 0.204922H10.52L10.31 0.234922L10.135 0.269922C9.91504 0.309922 9.69504 0.354922 9.48004 0.409922L9.29003 0.454922L9.04503 0.524921L8.90503 0.564922L8.58004 0.664923L8.48503 0.699923L8.27503 0.769922L8.07503 0.844921L7.97003 0.884922L7.63003 1.02492L7.54503 1.06492L7.38003 1.13492L7.28003 1.18492L7.11503 1.26492C6.81003 1.41492 6.51503 1.57492 6.22503 1.76492L6.14503 1.81492L5.95504 1.92992L5.77003 2.05492L5.39503 2.30992L5.29003 2.38492C5.17503 2.46992 5.05503 2.55992 4.94503 2.64992L4.83503 2.72992C4.68503 2.85492 4.53504 2.97992 4.38504 3.11492L4.28003 3.20992C3.87251 3.44887 3.48011 3.7127 3.10504 3.99992L3.04503 4.06992C2.88003 4.25492 2.72503 4.43992 2.58003 4.62992L2.52003 4.69992C2.44003 4.79992 2.36503 4.90492 2.29003 5.00992L2.23004 5.09492L2.10504 5.27492C2.06504 5.32992 2.02503 5.38992 1.99003 5.44992L1.96003 5.48992L1.83004 5.69492C1.81984 5.70881 1.81144 5.72393 1.80503 5.73992L1.68503 5.93492L1.53504 6.19492C1.50004 6.25992 1.46003 6.32492 1.43003 6.38992L1.30503 6.62492C1.22503 6.77992 1.15004 6.93992 1.08004 7.12492C1.08004 7.18992 1.02504 7.25992 0.995036 7.32492L0.96503 7.39492L0.880031 7.59992L0.785037 7.84492C0.755037 7.92492 0.72503 8.00492 0.70003 8.08492C0.67003 8.16992 0.640031 8.24992 0.615031 8.33492L0.540034 8.55992V8.61492L0.480037 8.81992C0.480037 8.81992 0.480037 8.87492 0.480037 8.90492C0.480037 8.93492 0.445034 9.02492 0.430034 9.08492L0.370036 9.32992C0.370036 9.40492 0.335033 9.47992 0.320033 9.55492V9.61492C0.320033 9.61492 0.320033 9.61492 0.320033 9.64492C0.320033 9.67492 0.320032 9.77492 0.280032 9.83992V9.86992C0.280032 9.94992 0.280031 10.0299 0.240031 10.1149C0.237692 10.1248 0.237692 10.1351 0.240031 10.1449C0.240031 10.2149 0.215032 10.2849 0.210032 10.3599C0.207678 10.3782 0.207678 10.3967 0.210032 10.4149C0.210032 10.4799 0.210031 10.5399 0.185031 10.6049C0.182806 10.6382 0.182806 10.6716 0.185031 10.7049C0.185031 10.7749 0.185037 10.8449 0.160037 10.9149C0.135037 10.9849 0.160037 11.1249 0.160037 11.2299C0.160037 11.3349 0.160037 11.3599 0.160037 11.4249C0.16245 11.4532 0.16245 11.4816 0.160037 11.5099C0.160037 11.5849 0.160037 11.6599 0.160037 11.7349V11.7849C0.160037 11.8699 0.160037 11.9599 0.160037 12.0499C0.160037 12.1399 0.160037 12.2549 0.160037 12.3599V12.5149C0.160037 12.5799 0.160037 12.6449 0.160037 12.7149C0.160037 12.7849 0.160037 12.8149 0.160037 12.8649C0.160037 12.9149 0.160037 12.9399 0.160037 12.9799C0.160037 13.0199 0.160037 13.0449 0.160037 13.0799C0.157567 13.1149 0.157567 13.15 0.160037 13.1849V13.3449C0.160037 13.3799 0.160037 13.4149 0.160037 13.4449V13.5849C0.160037 13.6399 0.160031 13.6899 0.185031 13.7399C0.210031 13.7899 0.185034 13.9049 0.220034 13.9849C0.255034 14.0649 0.220036 14.0899 0.245036 14.1399L0.275035 14.2949C0.277476 14.3199 0.277476 14.345 0.275035 14.3699C0.275035 14.4499 0.31003 14.5249 0.32503 14.6049C0.36003 14.7599 0.395031 14.9149 0.435031 15.0699L0.555034 15.4999C0.712518 16.0277 0.906315 16.5439 1.13504 17.0449C1.14962 17.0825 1.16631 17.1192 1.18503 17.1549C1.24503 17.2799 1.30504 17.4099 1.37004 17.5349L1.51004 17.8049C1.6367 18.0283 1.7667 18.2483 1.90003 18.4649L1.98004 18.5949C2.50737 19.4081 3.12827 20.1565 3.83003 20.8249L3.94503 20.9249L4.01004 20.9799L4.19503 21.1499C5.07379 21.8963 6.14779 22.3755 7.29018 22.5311C8.43257 22.6866 9.59561 22.5119 10.6419 22.0277C11.6882 21.5434 12.5741 20.7699 13.1948 19.7983C13.8156 18.8268 14.1453 17.6978 14.145 16.5449V12.9499H12.145C11.6146 12.9499 11.1059 13.1606 10.7308 13.5357C10.3558 13.9108 10.145 14.4195 10.145 14.9499V16.5299C10.1506 17.0625 9.94759 17.5761 9.57949 17.9611C9.21138 18.346 8.70733 18.5717 8.17504 18.5899C7.70104 18.601 7.23854 18.4432 6.87004 18.1449C6.8276 18.1128 6.7875 18.0777 6.75003 18.0399L6.71503 18.0049C5.89294 17.2528 5.23702 16.3373 4.78929 15.317C4.34157 14.2967 4.11191 13.1941 4.11503 12.0799C4.11509 10.6285 4.50731 9.20413 5.25021 7.95728C5.99311 6.71044 7.05909 5.68748 8.33547 4.99655C9.61185 4.30562 11.0512 3.97239 12.5013 4.03209C13.9515 4.09179 15.3586 4.5422 16.5739 5.3357C17.7891 6.1292 18.7674 7.23631 19.4053 8.54C20.0432 9.84369 20.317 11.2955 20.1978 12.742C20.0786 14.1885 19.5707 15.5759 18.728 16.7575C17.8852 17.9391 16.7388 18.8711 15.41 19.4549C15.0443 19.6075 14.7321 19.8652 14.5132 20.1955C14.2942 20.5258 14.1782 20.9137 14.18 21.3099V23.9999C15.1347 23.8395 16.0665 23.5642 16.955 23.1799H17.005L17.205 23.0899L17.405 22.9949L17.61 22.8949L17.79 22.7999L17.935 22.7249L18.045 22.6649L18.26 22.5449C18.4 22.4649 18.535 22.3799 18.675 22.2899L18.785 22.2199C18.985 22.0849 19.185 21.9449 19.375 21.7999L19.495 21.7149L19.835 21.4399C19.91 21.3799 19.985 21.3199 20.055 21.2549L20.165 21.1599L20.38 20.9649L20.485 20.8649L20.59 20.7649L20.795 20.5599C20.895 20.4549 20.995 20.3499 21.09 20.2399L21.19 20.1349L21.285 20.0249L21.38 19.9149L21.47 19.8049C21.565 19.6949 21.655 19.5799 21.74 19.4649C21.825 19.3499 21.86 19.3099 21.915 19.2299C21.97 19.1499 21.975 19.1549 22 19.1149L22.17 18.8749C22.17 18.8349 22.22 18.7949 22.25 18.7549C22.28 18.7149 22.355 18.5899 22.405 18.5099L22.48 18.3849C22.535 18.2999 22.58 18.2149 22.63 18.1349L22.7 18.0099L22.84 17.7499L22.9 17.6399L22.975 17.4899L23.065 17.3049L23.155 17.1099C23.155 17.0599 23.2 17.0099 23.225 16.9549C23.25 16.8999 23.265 16.8649 23.28 16.8199L23.34 16.6849L23.415 16.4899C23.44 16.4299 23.465 16.3649 23.485 16.3049C23.505 16.2449 23.54 16.1599 23.565 16.0849C23.59 16.0099 23.61 15.9549 23.63 15.8849C23.65 15.8149 23.68 15.7449 23.7 15.6749L23.76 15.4649C23.76 15.4049 23.795 15.3499 23.81 15.2949C23.825 15.2399 23.81 15.2349 23.81 15.2049C23.8193 15.1593 23.831 15.1143 23.845 15.0699C23.845 14.9749 23.89 14.8849 23.91 14.7899C23.93 14.6949 23.91 14.6849 23.945 14.6349C23.98 14.5849 23.98 14.4649 23.995 14.3849C24.01 14.3049 24.02 14.2349 24.035 14.1599L24.065 13.9849C24.065 13.9349 24.065 13.8899 24.065 13.8449C24.065 13.7949 24.065 13.7449 24.065 13.6949C24.065 13.6449 24.065 13.5799 24.065 13.5199C24.065 13.4599 24.065 13.3799 24.065 13.3049V13.0899C24.065 13.0899 24.065 13.0899 24.065 13.0599C24.065 13.0299 24.065 12.9399 24.065 12.8799C24.065 12.8199 24.065 12.8149 24.065 12.7849C24.065 12.7549 24.065 12.6749 24.065 12.6199C24.065 12.5649 24.065 12.4649 24.065 12.3899V11.8899L24.165 11.8199Z" fill="#FF2E2E"></path><path data-v-66515314="" d="M11.7798 6.58496C12.0839 6.58496 12.3849 6.64484 12.6658 6.76118C12.9466 6.87752 13.2018 7.04804 13.4168 7.26301C13.6318 7.47798 13.8023 7.73318 13.9186 8.01405C14.035 8.29492 14.0948 8.59595 14.0948 8.89996V11.215H11.7798C11.1659 11.215 10.577 10.9711 10.1429 10.5369C9.70875 10.1028 9.46484 9.51394 9.46484 8.89996C9.46484 8.59595 9.52473 8.29492 9.64107 8.01405C9.75741 7.73318 9.92793 7.47798 10.1429 7.26301C10.3579 7.04804 10.6131 6.87752 10.8939 6.76118C11.1748 6.64484 11.4758 6.58496 11.7798 6.58496Z" fill="#FF2E2E"></path><path data-v-66515314="" d="M36.0798 12.2451L34.5448 12.0351C34.132 12.0087 33.7366 11.8589 33.4098 11.6051C33.3048 11.4922 33.224 11.3589 33.1724 11.2136C33.1209 11.0683 33.0995 10.9139 33.1098 10.7601C33.106 10.5977 33.1418 10.4367 33.2141 10.2913C33.2864 10.1458 33.393 10.0201 33.5248 9.92508C33.953 9.68247 34.4444 9.57445 34.9348 9.61508C35.5154 9.61668 36.0887 9.74464 36.6148 9.99008C37.1719 10.2419 37.6797 10.5907 38.1148 11.0201L40.3298 8.75008C39.9798 8.42508 39.6298 8.12508 39.2748 7.85508C38.9111 7.58328 38.5167 7.35505 38.0998 7.17508C37.6304 6.98197 37.1406 6.84275 36.6398 6.76008C36.0151 6.65792 35.3828 6.60941 34.7498 6.61508C34.0039 6.60549 33.2612 6.71521 32.5498 6.94008C31.9404 7.13687 31.3737 7.44734 30.8798 7.85508C30.4248 8.23838 30.0609 8.71837 29.8148 9.26008C29.5564 9.82984 29.4267 10.4495 29.4348 11.0751C29.4348 13.5051 30.9732 14.9117 34.0498 15.2951L35.5498 15.4801C36.4698 15.6001 36.9298 15.9801 36.9298 16.6251C36.9363 16.8074 36.8994 16.9886 36.822 17.1538C36.7446 17.319 36.629 17.4634 36.4848 17.5751C36.0072 17.8577 35.4524 17.9819 34.8998 17.9301C34.2048 17.9389 33.5182 17.7776 32.8998 17.4601C32.2907 17.1314 31.744 16.6981 31.2849 16.1801L28.9648 18.5001C29.6772 19.3174 30.5657 19.9625 31.5634 20.3868C32.5611 20.8112 33.642 21.0038 34.7248 20.9501C35.5408 20.9597 36.3534 20.8451 37.1348 20.6101C37.8061 20.4134 38.4339 20.091 38.9848 19.6601C39.4824 19.2712 39.8886 18.7779 40.1748 18.2151C40.4529 17.6472 40.595 17.0224 40.5898 16.3901C40.5898 14.0301 39.0865 12.6484 36.0798 12.2451Z" fill="#FF2E2E"></path><path data-v-66515314="" d="M54.3551 14.75V13.6C54.3577 12.7063 54.2382 11.8164 54.0001 10.955C53.7836 10.1427 53.4024 9.38368 52.8801 8.725C52.3427 8.06392 51.6577 7.53816 50.8801 7.19C49.9746 6.78739 48.9908 6.59099 48.0001 6.615C47.0624 6.59521 46.1304 6.76529 45.2601 7.115C44.4926 7.43898 43.8087 7.93308 43.2601 8.56C42.6863 9.21858 42.2571 9.99019 42.0001 10.825C41.4336 12.7526 41.4336 14.8024 42.0001 16.73C42.262 17.5706 42.702 18.3448 43.2901 19C43.8658 19.624 44.5728 20.1124 45.3601 20.43C46.248 20.7792 47.1962 20.9492 48.1501 20.93C49.2951 20.949 50.4329 20.7452 51.5001 20.33C52.4188 19.9726 53.2371 19.3978 53.8851 18.655L51.9551 16.25C51.5357 16.6895 51.0638 17.0757 50.5501 17.4C49.9595 17.7499 49.2811 17.9234 48.5951 17.9C48.1785 17.9374 47.7587 17.8863 47.3632 17.7501C46.9677 17.614 46.6055 17.3959 46.3001 17.11C45.7895 16.5217 45.5277 15.7579 45.5701 14.98V14.75H54.3551ZM45.5701 12.25C45.5352 11.5101 45.7717 10.7829 46.2351 10.205C46.4639 9.94619 46.7482 9.74249 47.0669 9.60915C47.3855 9.4758 47.7302 9.41627 48.0751 9.435C48.4046 9.41044 48.7351 9.46792 49.037 9.60228C49.3389 9.73665 49.6028 9.94373 49.8051 10.205C50.1993 10.7954 50.3954 11.4958 50.3651 12.205V12.5H45.5701V12.25Z" fill="#FF2E2E"></path><path data-v-66515314="" d="M80.3702 8.39501V17.09C80.3713 18.1751 79.9802 19.224 79.2691 20.0436C78.5579 20.8631 77.5746 21.3981 76.5002 21.55C76.2853 21.5843 76.0679 21.6011 75.8502 21.6C75.6309 21.601 75.4119 21.5842 75.1952 21.55C74.1236 21.3948 73.1438 20.8584 72.4357 20.0392C71.7276 19.2199 71.3387 18.1728 71.3402 17.09V12.35C71.3402 10.6133 70.7152 9.74501 69.4652 9.74501C68.9039 9.74237 68.3561 9.91738 67.9002 10.245C67.6659 10.4154 67.4784 10.6423 67.3551 10.9045C67.2319 11.1667 67.1769 11.4558 67.1952 11.745V20.61H63.3502V12.35C63.3502 10.615 62.7202 9.74501 61.4702 9.74501C61.1928 9.74322 60.9165 9.78197 60.6502 9.86001C60.384 9.9368 60.1358 10.066 59.9202 10.24C59.7121 10.4154 59.5419 10.6315 59.4202 10.875C59.2862 11.1469 59.2193 11.4469 59.2252 11.75V20.61H55.3652V9.11001C55.3652 8.53184 55.5949 7.97735 56.0037 7.56852C56.4126 7.15969 56.9671 6.93001 57.5452 6.93001H59.2252V9.25001H59.3802C59.6204 8.52666 60.0524 7.88207 60.6302 7.38501C61.3163 6.83881 62.1797 6.56467 63.0552 6.61501C63.9097 6.59019 64.75 6.83703 65.4552 7.32001C66.1446 7.83158 66.647 8.55529 66.8852 9.38001H66.9652C67.2261 8.57553 67.7557 7.88524 68.4652 7.42501C68.8442 7.17372 69.2566 6.9768 69.6902 6.84001C70.1616 6.68693 70.6546 6.61096 71.1502 6.61501C71.7249 6.58663 72.298 6.69777 72.8204 6.93895C73.3428 7.18014 73.7991 7.54419 74.1502 8.00001C74.8624 9.06706 75.229 10.3274 75.2002 11.61C75.2002 11.745 75.2002 11.88 75.2002 12.015V17.09C75.2008 17.1784 75.2192 17.2658 75.2542 17.3469C75.2892 17.4281 75.3402 17.5014 75.4041 17.5625C75.468 17.6236 75.5435 17.6712 75.6261 17.7026C75.7088 17.7339 75.7969 17.7484 75.8852 17.745C76.0558 17.7287 76.214 17.6485 76.328 17.5206C76.442 17.3926 76.5035 17.2264 76.5002 17.055V10.555C76.5002 9.97684 76.7299 9.42235 77.1387 9.01352C77.5476 8.60469 78.102 8.37501 78.6802 8.37501L80.3702 8.39501Z" fill="#FF2E2E"></path><path data-v-66515314="" d="M90.6153 15.8149C90.4368 16.3524 90.1472 16.8465 89.7653 17.2649C89.5405 17.4814 89.2722 17.6478 88.9783 17.753C88.6844 17.8581 88.3715 17.8997 88.0603 17.8749C87.7249 17.8976 87.389 17.84 87.0803 17.707C86.7716 17.574 86.4991 17.3693 86.2853 17.1099C85.8593 16.5086 85.6495 15.7807 85.6903 15.0449V12.4999C85.6495 11.7641 85.8593 11.0362 86.2853 10.4349C86.4991 10.1755 86.7716 9.97079 87.0803 9.83775C87.389 9.70471 87.7249 9.64716 88.0603 9.66987C88.6413 9.63558 89.2125 9.83136 89.6503 10.2149C90.0279 10.5738 90.2906 11.0366 90.4053 11.5449L93.5353 10.1899C93.1739 9.11822 92.4714 8.19444 91.5353 7.55987C90.4907 6.8995 89.2702 6.57172 88.0353 6.61987C87.0996 6.60453 86.1701 6.77446 85.3003 7.11987C84.5297 7.43362 83.8443 7.92536 83.3003 8.55487C82.7432 9.21565 82.3264 9.98288 82.0753 10.8099C81.7851 11.7675 81.6451 12.7643 81.6603 13.7649C81.6459 14.7719 81.7858 15.7752 82.0753 16.7399C82.327 17.5712 82.7493 18.341 83.3153 18.9999C83.8637 19.6233 84.548 20.1125 85.3153 20.4299C86.1837 20.7801 87.1142 20.9502 88.0503 20.9299C89.2665 20.9643 90.4661 20.6409 91.5003 19.9999C92.5065 19.3046 93.2455 18.2869 93.5953 17.1149L90.6153 15.8149Z" fill="#FF2E2E"></path><path data-v-66515314="" d="M107 10.7851C106.732 9.95681 106.302 9.19021 105.735 8.53006C105.184 7.9113 104.501 7.42574 103.735 7.11006C101.997 6.45029 100.078 6.45029 98.3399 7.11006C97.5739 7.42512 96.8899 7.91078 96.3399 8.53006C95.769 9.18767 95.3385 9.95505 95.0749 10.7851C94.4815 12.7223 94.4815 14.7928 95.0749 16.7301C95.3305 17.5618 95.7505 18.3337 96.3099 19.0001C96.8565 19.6268 97.5411 20.118 98.3099 20.4351C100.048 21.0948 101.967 21.0948 103.705 20.4351C104.473 20.1176 105.158 19.6264 105.705 19.0001C106.283 18.3366 106.723 17.565 107 16.7301C107.587 14.7918 107.587 12.7233 107 10.7851ZM103.425 15.1651C103.472 15.8854 103.251 16.5977 102.805 17.1651C102.325 17.6183 101.69 17.8708 101.03 17.8708C100.37 17.8708 99.7348 17.6183 99.2549 17.1651C98.8067 16.5985 98.5841 15.886 98.6299 15.1651V12.3751C98.5841 11.6541 98.8067 10.9417 99.2549 10.3751C99.7348 9.92182 100.37 9.66931 101.03 9.66931C101.69 9.66931 102.325 9.92182 102.805 10.3751C103.251 10.9424 103.472 11.6547 103.425 12.3751V15.1651Z" fill="#FF2E2E"></path><path data-v-66515314="" d="M112.67 16.6049V2.3999H108.815V16.8599C108.747 17.8751 109.079 18.8767 109.74 19.6499C110.353 20.2899 111.322 20.6099 112.645 20.6099H115.315V17.6099H113.685C113.552 17.6119 113.42 17.5873 113.297 17.5377C113.173 17.488 113.061 17.4142 112.966 17.3206C112.872 17.227 112.797 17.1155 112.746 16.9926C112.695 16.8697 112.669 16.7379 112.67 16.6049Z" fill="#FF2E2E"></path><path data-v-66515314="" d="M128.285 10.7851C128.021 9.95623 127.592 9.18923 127.025 8.53006C126.474 7.91221 125.79 7.42681 125.025 7.11006C123.287 6.45029 121.368 6.45029 119.63 7.11006C118.864 7.42512 118.18 7.91078 117.63 8.53006C117.059 9.18767 116.628 9.95505 116.365 10.7851C115.778 12.7233 115.778 14.7918 116.365 16.7301C116.625 17.563 117.05 18.335 117.615 19.0001C118.161 19.6268 118.846 20.118 119.615 20.4351C121.353 21.0948 123.272 21.0948 125.01 20.4351C125.778 20.1161 126.462 19.6252 127.01 19.0001C127.576 18.3365 128.005 17.5665 128.27 16.7351C128.863 14.7978 128.863 12.7273 128.27 10.7901L128.285 10.7851ZM124.715 15.1651C124.763 15.8863 124.54 16.5994 124.09 17.1651C123.611 17.618 122.977 17.8703 122.317 17.8703C121.658 17.8703 121.024 17.618 120.545 17.1651C120.097 16.5985 119.874 15.886 119.92 15.1651V12.3751C119.874 11.6541 120.097 10.9417 120.545 10.3751C121.024 9.92215 121.658 9.6698 122.317 9.6698C122.977 9.6698 123.611 9.92215 124.09 10.3751C124.54 10.9408 124.763 11.6539 124.715 12.3751V15.1651Z" fill="#FF2E2E"></path><path data-v-66515314="" d="M140.735 7.99988C140.354 7.52648 139.865 7.15167 139.309 6.90713C138.753 6.66258 138.146 6.55548 137.54 6.59488C136.623 6.54182 135.719 6.8284 135 7.39988C134.412 7.88799 133.97 8.52783 133.72 9.24988H133.565V6.92988H131.89C131.312 6.92988 130.757 7.15956 130.348 7.56839C129.94 7.97722 129.71 8.53171 129.71 9.10988V20.6099H133.565V11.7499C133.559 11.4451 133.631 11.1438 133.775 10.8749C133.914 10.6257 134.105 10.4092 134.335 10.2399C134.574 10.064 134.843 9.93506 135.13 9.85988C135.427 9.78139 135.733 9.74272 136.04 9.74488C136.324 9.70992 136.613 9.7507 136.876 9.86309C137.139 9.97548 137.368 10.1555 137.54 10.3849C137.863 10.9871 138.008 11.6684 137.96 12.3499V20.6099H141.815V12.0349C141.815 10.3016 141.455 8.95655 140.735 7.99988Z" fill="#FF2E2E"></path><path data-v-66515314="" d="M80.37 6.7649H78.185C77.8981 6.7649 77.6139 6.70839 77.3488 6.59858C77.0837 6.48877 76.8429 6.32783 76.64 6.12493C76.4371 5.92204 76.2761 5.68116 76.1663 5.41607C76.0565 5.15097 76 4.86684 76 4.5799C76 4.00173 76.2297 3.44724 76.6385 3.03841C77.0473 2.62958 77.6018 2.3999 78.18 2.3999C78.7586 2.3999 79.3136 2.62942 79.7233 3.03811C80.1329 3.44679 80.3637 4.00127 80.365 4.5799L80.37 6.7649Z" fill="#FF2E2E"></path></svg>